<svg width="1097" height="589" viewBox="0 0 1097 589" fill="none" xmlns="http://www.w3.org/2000/svg">
<g opacity="0.2">
<g opacity="0.2">
<g opacity="0.2">
<path opacity="0.2" d="M187.792 325.093L350.874 497.833L247.312 600.107L411.594 774.15L409.096 776.627L242.27 599.978L345.832 497.652L187.713 330.16L116.051 400.914L55.5804 336.822L58.1664 334.309L116.235 395.759L187.792 325.093Z" fill="#333333"/>
</g>
<g opacity="0.2">
<path opacity="0.2" d="M52.252 330.756C55.3622 327.734 60.262 327.864 63.1824 330.951C66.1388 334.09 66.0584 339.053 63.0015 342.092C59.9792 345.079 55.1159 345.035 52.1241 341.897C49.2036 338.792 49.2472 333.726 52.252 330.756Z" fill="#333333"/>
</g>
<g opacity="0.2">
<path opacity="0.2" d="M342.539 491.62C346.348 487.843 352.327 488.047 355.928 491.854C359.566 495.713 359.57 501.82 355.744 505.597C352.023 509.235 345.957 509.206 342.32 505.347C338.718 501.505 338.817 495.24 342.539 491.62Z" fill="#333333"/>
</g>
<g opacity="0.2">
<path opacity="0.2" d="M180.335 319.737C184.108 316.012 190.087 316.164 193.724 320.023C197.362 323.882 197.313 329.99 193.54 333.715C189.819 337.439 183.753 337.323 180.115 333.464C176.461 329.623 176.597 323.462 180.335 319.737Z" fill="#333333"/>
</g>
<g opacity="0.2">
<path opacity="0.2" d="M112.107 392.271C114.413 389.935 118.162 390.01 120.438 392.428C122.713 394.846 122.655 398.681 120.331 400.966C117.921 403.39 114.17 403.228 111.947 400.809C109.69 398.39 109.713 394.59 112.107 392.271Z" fill="#333333"/>
</g>
</g>
<g opacity="0.2">
<g opacity="0.2">
<path opacity="0.2" d="M501.589 503.885L664.671 676.624L561.126 778.898L725.444 952.941L722.842 955.558L556.069 778.891L659.631 676.582L501.512 509.091L429.938 579.809L369.379 515.718L371.981 513.101L430.033 574.585L501.589 503.885Z" fill="#333333"/>
</g>
<g opacity="0.2">
<path opacity="0.2" d="M366.103 509.634C369.213 506.611 374.077 506.655 377.086 509.828C380.007 512.915 379.874 517.896 376.817 520.97C373.795 523.957 368.949 523.861 366.028 520.774C363.001 517.584 363.098 512.603 366.103 509.634Z" fill="#333333"/>
</g>
<g opacity="0.2">
<path opacity="0.2" d="M494.169 498.632C497.942 494.907 503.868 495.06 507.505 498.919C511.106 502.726 511.094 508.886 507.373 512.61C503.564 516.335 497.497 516.167 493.896 512.36C490.259 508.501 490.359 502.34 494.169 498.632Z" fill="#333333"/>
</g>
<g opacity="0.2">
<path opacity="0.2" d="M425.87 571.149C428.229 568.83 432.031 568.887 434.254 571.306C436.53 573.724 436.471 577.559 434.112 579.878C431.753 582.198 428.004 582.14 425.728 579.722C423.488 577.321 423.511 573.468 425.87 571.149Z" fill="#333333"/>
</g>
</g>
<g opacity="0.2">
<g opacity="0.2">
<path opacity="0.2" d="M550.675 275.817L553.183 278.458L493.069 337.861L562.264 411.11L393.505 577.864L293.491 471.873L123.456 639.875L120.948 637.269L293.568 466.702L393.6 572.692L557.171 411.069L488.011 337.819L550.675 275.817Z" fill="#333333"/>
</g>
<g opacity="0.2">
<path opacity="0.2" d="M299.452 463.437C303.053 467.244 302.987 473.318 299.231 477.077C295.422 480.802 289.444 480.685 285.843 476.878C282.152 472.967 282.254 466.911 286.08 463.133C289.889 459.373 295.814 459.543 299.452 463.437Z" fill="#333333"/>
</g>
<g opacity="0.2">
<path opacity="0.2" d="M556.575 272.499C559.585 275.689 559.452 280.705 556.43 283.692C553.373 286.714 548.509 286.635 545.553 283.497C542.596 280.323 542.677 275.395 545.733 272.321C548.755 269.334 553.602 269.413 556.575 272.499Z" fill="#333333"/>
</g>
<g opacity="0.2">
<path opacity="0.2" d="M399.537 569.444C403.138 573.251 403.125 579.324 399.316 583.084C395.508 586.861 389.529 586.692 385.928 582.885C382.237 578.975 382.338 572.866 386.165 569.141C389.92 565.381 395.846 565.534 399.537 569.444Z" fill="#333333"/>
</g>
<g opacity="0.2">
<path opacity="0.2" d="M567.44 403.533C571.041 407.341 570.923 413.501 567.219 417.173C563.411 420.951 557.432 420.782 553.831 416.974C550.14 413.064 550.242 407.007 554.068 403.23C557.789 399.558 563.767 399.623 567.44 403.533Z" fill="#333333"/>
</g>
<g opacity="0.2">
<path opacity="0.2" d="M496.464 333.603C498.793 336.02 498.734 339.855 496.375 342.14C493.965 344.564 490.268 344.454 487.939 341.984C485.699 339.583 485.722 335.783 488.134 333.463C490.492 331.126 494.189 331.202 496.464 333.603Z" fill="#333333"/>
</g>
</g>
<g opacity="0.2">
<g opacity="0.2">
<path opacity="0.2" d="M860.864 371.475L863.319 374.134L803.258 433.485L872.454 506.786L703.659 673.54L603.574 567.481L433.644 735.395L431.189 732.788L603.705 562.327L703.789 668.316L867.413 506.692L798.199 433.391L860.864 371.475Z" fill="#333333"/>
</g>
<g opacity="0.2">
<path opacity="0.2" d="M607.795 557.036C611.432 560.895 611.331 567.056 607.522 570.781C603.802 574.506 597.77 574.389 594.133 570.547C590.532 566.688 590.632 560.527 594.371 556.855C598.162 553.078 604.193 553.177 607.795 557.036Z" fill="#333333"/>
</g>
<g opacity="0.2">
<path opacity="0.2" d="M866.853 368.174C869.809 371.313 869.729 376.293 866.672 379.263C863.615 382.337 858.698 382.242 855.742 379.155C852.732 375.965 852.865 370.949 855.922 367.928C858.979 364.906 863.843 365.002 866.853 368.174Z" fill="#333333"/>
</g>
<g opacity="0.2">
<path opacity="0.2" d="M877.541 499.158C881.178 503.017 881.13 509.125 877.356 512.85C873.583 516.575 867.569 516.458 863.932 512.599C860.331 508.792 860.432 502.631 864.205 498.907C867.978 495.147 873.94 495.351 877.541 499.158Z" fill="#333333"/>
</g>
<g opacity="0.2">
<path opacity="0.2" d="M796.467 433.567C796.515 436.901 799.206 439.565 802.477 439.519C805.748 439.472 808.361 436.731 808.312 433.397C808.264 430.063 805.573 427.398 802.302 427.445C799.031 427.492 796.419 430.233 796.467 433.567Z" fill="#333333"/>
</g>
</g>
<g opacity="0.2">
<g opacity="0.2">
<path opacity="0.2" d="M450.962 48.1276L453.435 50.7343L393.356 110.137L462.516 183.387L293.845 350.087L193.725 244.098L23.6899 412.1L21.2352 409.493L193.82 238.927L293.887 344.934L457.51 183.257L388.35 110.008L450.962 48.1276Z" fill="#333333"/>
</g>
<g opacity="0.2">
<path opacity="0.2" d="M29.3375 404.049C32.9748 407.908 32.7856 414.07 29.065 417.794C25.2902 421.415 19.3128 421.367 15.6761 417.56C12.0389 413.701 12.1927 407.54 15.8962 403.868C19.6872 400.125 25.7002 400.19 29.3375 404.049Z" fill="#333333"/>
</g>
<g opacity="0.2">
<path opacity="0.2" d="M199.703 235.662C203.34 239.521 203.292 245.594 199.465 249.354C195.744 253.026 189.714 252.979 186.077 249.12C182.44 245.261 182.576 239.1 186.35 235.427C190.141 231.65 196.067 231.855 199.703 235.662Z" fill="#333333"/>
</g>
<g opacity="0.2">
<path opacity="0.2" d="M456.916 44.8269C459.837 47.9139 459.792 52.9288 456.735 55.9681C453.678 58.9901 448.761 58.8599 445.858 55.7727C442.901 52.634 442.946 47.6192 446.003 44.5799C449.042 41.5581 453.942 41.6885 456.916 44.8269Z" fill="#333333"/>
</g>
<g opacity="0.2">
<path opacity="0.2" d="M299.788 341.668C303.425 345.527 303.323 351.584 299.551 355.361C295.829 358.998 289.763 358.969 286.162 355.127C282.525 351.268 282.678 345.107 286.4 341.435C290.208 337.657 296.133 337.81 299.788 341.668Z" fill="#333333"/>
</g>
<g opacity="0.2">
<path opacity="0.2" d="M467.691 175.758C471.293 179.617 471.192 185.726 467.454 189.45C463.645 193.176 457.667 193.058 454.029 189.199C450.392 185.341 450.494 179.284 454.302 175.507C458.024 171.835 464.054 171.899 467.691 175.758Z" fill="#333333"/>
</g>
<g opacity="0.2">
<path opacity="0.2" d="M396.769 105.879C399.009 108.28 399.075 112.131 396.681 114.451C394.322 116.788 390.537 116.661 388.297 114.259C385.968 111.842 386.045 108.058 388.438 105.687C390.779 103.368 394.494 103.478 396.769 105.879Z" fill="#333333"/>
</g>
</g>
<g opacity="0.2">
<g opacity="0.2">
<path opacity="0.2" d="M780.99 10.3434L783.462 12.95L723.383 72.3007L792.597 145.602L623.785 312.356L523.753 206.401L353.718 374.35L351.228 371.744L523.848 201.194L623.862 307.185L787.485 145.509L718.29 72.2595L780.99 10.3434Z" fill="#333333"/>
</g>
<g opacity="0.2">
<path opacity="0.2" d="M359.33 366.3C362.984 370.106 362.867 376.319 359.058 380.045C355.337 383.717 349.306 383.618 345.722 379.81C342.085 375.951 342.186 369.791 345.906 366.066C349.662 362.342 355.728 362.44 359.33 366.3Z" fill="#333333"/>
</g>
<g opacity="0.2">
<path opacity="0.2" d="M529.784 197.877C533.386 201.736 533.285 207.897 529.512 211.622C525.738 215.346 519.725 215.23 516.123 211.388C512.486 207.529 512.586 201.368 516.36 197.643C520.116 193.919 526.147 194.018 529.784 197.877Z" fill="#333333"/>
</g>
<g opacity="0.2">
<path opacity="0.2" d="M786.838 7.04402C789.795 10.2347 789.715 15.1979 786.745 18.132C783.635 21.2067 778.772 21.1626 775.762 17.99C772.841 14.903 772.939 9.88754 775.995 6.81353C779.017 3.80934 783.882 3.9401 786.838 7.04402Z" fill="#333333"/>
</g>
<g opacity="0.2">
<path opacity="0.2" d="M629.851 303.884C633.453 307.743 633.352 313.904 629.579 317.629C625.805 321.302 619.791 321.202 616.19 317.395C612.553 313.536 612.654 307.375 616.427 303.651C620.2 299.908 626.214 300.025 629.851 303.884Z" fill="#333333"/>
</g>
<g opacity="0.2">
<path opacity="0.2" d="M797.772 137.973C801.373 141.78 801.255 147.941 797.499 151.666C793.725 155.391 787.712 155.274 784.111 151.467C780.473 147.608 780.574 141.447 784.348 137.722C788.104 134.015 794.135 134.114 797.772 137.973Z" fill="#333333"/>
</g>
<g opacity="0.2">
<path opacity="0.2" d="M726.797 68.0946C729.073 70.5476 729.014 74.3827 726.708 76.6667C724.297 79.0387 720.548 78.9809 718.236 76.511C715.961 74.0927 716.073 70.309 718.466 67.9372C720.773 65.6706 724.469 65.6943 726.797 68.0946Z" fill="#333333"/>
</g>
</g>
<g opacity="0.2">
<g opacity="0.2">
<g opacity="0.2">
<path opacity="0.2" d="M759.83 389.188L760.887 390.337L733.792 417.113L765.022 450.231L688.801 525.552L643.632 477.72L566.834 553.603L565.652 552.386L643.673 475.342L688.824 523.192L762.757 450.155L731.564 417.123L759.83 389.188Z" fill="#333333"/>
</g>
</g>
<g opacity="0.2">
<g opacity="0.2">
<path opacity="0.2" d="M569.405 549.893C571.054 551.677 570.947 554.42 569.217 556.107C567.557 557.776 564.888 557.791 563.185 555.991C561.502 554.259 561.645 551.499 563.286 549.83C565.034 548.16 567.721 548.11 569.405 549.893Z" fill="#333333"/>
</g>
</g>
<g opacity="0.2">
<g opacity="0.2">
<path opacity="0.2" d="M646.343 473.887C648.027 475.618 647.989 478.325 646.242 480.047C644.548 481.716 641.895 481.68 640.211 479.931C638.527 478.147 638.617 475.439 640.312 473.77C642.058 471.996 644.658 472.051 646.343 473.887Z" fill="#333333"/>
</g>
</g>
<g opacity="0.2">
<g opacity="0.2">
<path opacity="0.2" d="M762.498 387.628C763.825 389.069 763.782 391.342 762.42 392.695C761.057 394.048 758.881 394.005 757.52 392.565C756.193 391.124 756.184 388.938 757.564 387.533C758.909 386.232 761.173 386.273 762.498 387.628Z" fill="#333333"/>
</g>
</g>
<g opacity="0.2">
<g opacity="0.2">
<path opacity="0.2" d="M691.547 521.719C693.178 523.451 693.176 526.21 691.447 527.931C689.752 529.601 687.063 529.512 685.415 527.78C683.785 526.048 683.821 523.289 685.516 521.62C687.228 519.933 689.899 519.987 691.547 521.719Z" fill="#333333"/>
</g>
</g>
<g opacity="0.2">
<g opacity="0.2">
<path opacity="0.2" d="M767.402 446.767C769.085 448.498 768.943 451.346 767.301 452.979C765.607 454.649 762.883 454.613 761.235 452.863C759.604 451.131 759.693 448.337 761.388 446.65C762.978 445.086 765.753 445.035 767.402 446.767Z" fill="#333333"/>
</g>
</g>
<g opacity="0.2">
<g opacity="0.2">
<path opacity="0.2" d="M735.342 415.238C736.399 416.352 736.314 418.054 735.284 419.073C734.2 420.145 732.539 420.165 731.481 419.05C730.442 417.935 730.474 416.235 731.592 415.11C732.641 414.109 734.303 414.14 735.342 415.238Z" fill="#333333"/>
</g>
</g>
</g>
<g opacity="0.2">
<g opacity="0.2">
<g opacity="0.2">
<path opacity="0.2" d="M473.02 212.024L471.927 210.875L499.057 184.046L467.792 150.929L543.96 75.6427L589.13 123.493L665.927 47.6091L667.109 48.8091L589.194 125.817L543.971 77.9676L470.056 151.005L501.286 184.088L473.02 212.024Z" fill="#333333"/>
</g>
</g>
<g opacity="0.2">
<g opacity="0.2">
<path opacity="0.2" d="M663.461 51.2656C661.777 49.482 661.92 46.7388 663.562 45.105C665.257 43.4185 667.996 43.3327 669.681 45.1163C671.312 46.9006 671.187 49.6955 669.475 51.3823C667.833 52.9987 665.145 52.9972 663.461 51.2656Z" fill="#333333"/>
</g>
</g>
<g opacity="0.2">
<g opacity="0.2">
<path opacity="0.2" d="M586.524 127.272C584.84 125.489 584.877 122.834 586.624 121.112C588.319 119.442 590.972 119.444 592.656 121.228C594.305 123.012 594.25 125.72 592.555 127.389C590.808 129.111 588.155 129.057 586.524 127.272Z" fill="#333333"/>
</g>
</g>
<g opacity="0.2">
<g opacity="0.2">
<path opacity="0.2" d="M470.35 213.497C468.988 212.091 469.013 209.818 470.394 208.465C471.756 207.112 473.986 207.206 475.294 208.595C476.62 210.001 476.63 212.274 475.267 213.575C473.905 214.98 471.676 214.938 470.35 213.497Z" fill="#333333"/>
</g>
</g>
<g opacity="0.2">
<g opacity="0.2">
<path opacity="0.2" d="M540.115 76.4187C540.145 78.8234 542.077 80.7492 544.43 80.7202C546.783 80.6912 548.667 78.7183 548.637 76.3135C548.608 73.9087 546.676 71.9828 544.322 72.0119C541.969 72.0409 540.085 74.0139 540.115 76.4187Z" fill="#333333"/>
</g>
</g>
<g opacity="0.2">
<g opacity="0.2">
<path opacity="0.2" d="M465.412 154.393C463.764 152.661 463.871 149.866 465.565 148.18C467.26 146.493 469.948 146.547 471.579 148.296C473.263 150.08 473.173 152.788 471.478 154.457C469.783 156.126 467.096 156.177 465.412 154.393Z" fill="#333333"/>
</g>
</g>
<g opacity="0.2">
<g opacity="0.2">
<path opacity="0.2" d="M497.453 185.922C496.45 184.859 496.535 183.158 497.566 182.139C498.648 181.015 500.311 181.046 501.314 182.11C502.353 183.172 502.322 184.977 501.256 185.997C500.226 187.016 498.51 186.985 497.453 185.922Z" fill="#333333"/>
</g>
</g>
</g>
<g opacity="0.2">
<g opacity="0.2">
<g opacity="0.2">
<path opacity="0.2" d="M720.292 509.635L722.091 507.861L763.462 551.698L814.579 501.185L930.916 624.463L857.035 697.448L974.177 821.531L972.343 823.341L853.374 697.337L927.254 624.387L814.466 504.882L763.454 555.359L720.292 509.635Z" fill="#333333"/>
</g>
</g>
<g opacity="0.2">
<g opacity="0.2">
<path opacity="0.2" d="M717.905 505.327C720.124 503.183 723.643 503.209 725.739 505.421C727.835 507.634 727.739 511.244 725.52 513.422C723.354 515.566 719.974 515.399 717.878 513.187C715.782 510.975 715.739 507.471 717.905 505.327Z" fill="#333333"/>
</g>
</g>
<g opacity="0.2">
<g opacity="0.2">
<path opacity="0.2" d="M809.228 497.451C811.919 494.798 816.181 494.867 818.815 497.628C821.412 500.372 821.29 504.78 818.653 507.433C815.962 510.034 811.664 510 809.066 507.256C806.468 504.46 806.591 500.103 809.228 497.451Z" fill="#333333"/>
</g>
</g>
<g opacity="0.2">
<g opacity="0.2">
<path opacity="0.2" d="M760.549 549.183C762.243 547.514 764.843 547.551 766.474 549.284C768.157 551.015 768.12 553.722 766.407 555.357C764.713 557.026 762.078 557.024 760.43 555.292C758.799 553.559 758.854 550.852 760.549 549.183Z" fill="#333333"/>
</g>
</g>
</g>
<g opacity="0.2">
<g opacity="0.2">
<g opacity="0.2">
<path opacity="0.2" d="M601.991 138.324L603.79 136.55L645.215 180.438L696.297 129.926L812.615 253.187L738.735 326.223L855.931 450.324L854.132 452.133L735.179 326.077L809.042 253.075L696.271 133.622L645.208 184.134L601.991 138.324Z" fill="#333333"/>
</g>
</g>
<g opacity="0.2">
<g opacity="0.2">
<path opacity="0.2" d="M850.345 446.194C853.036 443.593 857.334 443.661 859.931 446.371C862.53 449.167 862.407 453.523 859.77 456.176C857.044 458.881 852.781 458.743 850.183 455.999C847.638 453.254 847.62 448.882 850.345 446.194Z" fill="#333333"/>
</g>
</g>
<g opacity="0.2">
<g opacity="0.2">
<path opacity="0.2" d="M732.88 321.767C735.554 319.166 739.833 319.183 742.414 321.945C745.011 324.654 744.942 329.096 742.251 331.715C739.526 334.42 735.299 334.299 732.718 331.537C730.121 328.828 730.155 324.473 732.88 321.767Z" fill="#333333"/>
</g>
</g>
<g opacity="0.2">
<g opacity="0.2">
<path opacity="0.2" d="M599.657 134.016C601.823 131.872 605.342 131.898 607.492 134.162C609.588 136.374 609.474 139.984 607.308 142.128C605.142 144.323 601.622 144.245 599.526 142.033C597.376 139.752 597.438 136.16 599.657 134.016Z" fill="#333333"/>
</g>
</g>
<g opacity="0.2">
<g opacity="0.2">
<path opacity="0.2" d="M806.708 248.818C809.451 246.112 813.661 246.234 816.259 248.995C818.857 251.739 818.823 256.112 816.097 258.8C813.459 261.4 809.108 261.333 806.546 258.623C803.948 255.827 804.018 251.471 806.708 248.818Z" fill="#333333"/>
</g>
</g>
<g opacity="0.2">
<g opacity="0.2">
<path opacity="0.2" d="M690.981 126.226C693.724 123.52 697.935 123.659 700.532 126.351C703.13 129.095 703.095 133.468 700.37 136.156C697.679 138.757 693.382 138.741 690.784 135.979C688.221 133.235 688.29 128.827 690.981 126.226Z" fill="#333333"/>
</g>
</g>
<g opacity="0.2">
<g opacity="0.2">
<path opacity="0.2" d="M642.302 177.924C643.997 176.289 646.685 176.291 648.279 177.989C649.91 179.721 649.821 182.515 648.179 184.201C646.537 185.783 643.848 185.729 642.2 183.997C640.605 182.247 640.643 179.592 642.302 177.924Z" fill="#333333"/>
</g>
</g>
</g>
<g opacity="0.2">
<g opacity="0.2">
<g opacity="0.2">
<path opacity="0.2" d="M40.9558 535.941L42.7894 534.079L84.2133 577.916L135.243 527.508L251.562 650.769L177.699 723.754L294.895 847.889L293.095 849.663L174.126 723.641L248.007 650.692L135.183 531.204L84.1181 581.664L40.9558 535.941Z" fill="#333333"/>
</g>
</g>
<g opacity="0.2">
<g opacity="0.2">
<path opacity="0.2" d="M38.6217 531.632C40.7879 529.489 44.3071 529.515 46.4039 531.779C48.5 533.992 48.4378 537.549 46.2716 539.693C44.1055 541.836 40.6389 541.775 38.5426 539.545C36.3757 537.334 36.4378 533.776 38.6217 531.632Z" fill="#333333"/>
</g>
</g>
<g opacity="0.2">
<g opacity="0.2">
<path opacity="0.2" d="M129.928 523.809C132.618 521.103 136.88 521.19 139.478 523.934C142.076 526.678 142.006 531.051 139.316 533.704C136.626 536.357 132.328 536.323 129.73 533.527C127.168 530.817 127.255 526.409 129.928 523.809Z" fill="#333333"/>
</g>
</g>
<g opacity="0.2">
<g opacity="0.2">
<path opacity="0.2" d="M81.2488 575.54C82.9428 573.819 85.6306 573.821 87.2258 575.553C88.9094 577.285 88.8196 580.045 87.0726 581.767C85.4653 583.348 82.7775 583.347 81.1463 581.562C79.5162 579.865 79.6061 577.122 81.2488 575.54Z" fill="#333333"/>
</g>
</g>
</g>
<g opacity="0.2">
<g opacity="0.2">
<g opacity="0.2">
<path opacity="0.2" d="M292.464 566.376L293.356 565.532L313.513 586.902L338.442 562.269L395.132 622.313L359.127 657.926L416.229 718.398L415.338 719.277L357.376 657.93L393.452 622.281L338.464 564.073L313.535 588.688L292.464 566.376Z" fill="#333333"/>
</g>
</g>
<g opacity="0.2">
<g opacity="0.2">
<path opacity="0.2" d="M291.377 564.255C292.461 563.235 294.087 563.215 295.127 564.33C296.167 565.48 296.151 567.093 295.068 568.165C293.985 569.237 292.358 569.257 291.319 568.142C290.226 566.993 290.295 565.379 291.377 564.255Z" fill="#333333"/>
</g>
</g>
<g opacity="0.2">
<g opacity="0.2">
<path opacity="0.2" d="M335.838 560.462C337.148 559.11 339.289 559.205 340.525 560.491C341.797 561.846 341.771 564.015 340.443 565.333C339.168 566.598 337.08 566.554 335.772 565.147C334.572 563.913 334.563 561.727 335.838 560.462Z" fill="#333333"/>
</g>
</g>
<g opacity="0.2">
<g opacity="0.2">
<path opacity="0.2" d="M312.101 585.687C312.904 584.897 314.195 584.863 314.966 585.739C315.79 586.561 315.771 587.932 314.967 588.723C314.164 589.513 312.873 589.495 312.049 588.62C311.242 587.762 311.297 586.478 312.101 585.687Z" fill="#333333"/>
</g>
</g>
</g>
<g opacity="0.2">
<g opacity="0.2">
<g opacity="0.2">
<path opacity="0.2" d="M599.287 480.904L598.41 480.03L618.954 459.737L595.321 434.663L652.937 377.772L687.14 413.941L745.175 356.594L746 357.503L687.109 415.694L652.959 379.524L597.038 434.78L620.67 459.768L599.287 480.904Z" fill="#333333"/>
</g>
</g>
<g opacity="0.2">
<g opacity="0.2">
<path opacity="0.2" d="M743.283 359.393C742.01 358.038 742.09 355.903 743.366 354.656C744.588 353.443 746.674 353.383 747.947 354.79C749.166 356.093 749.103 358.176 747.827 359.389C746.552 360.689 744.519 360.696 743.283 359.393Z" fill="#333333"/>
</g>
</g>
<g opacity="0.2">
<g opacity="0.2">
<path opacity="0.2" d="M685.143 416.846C683.818 415.492 683.863 413.461 685.173 412.161C686.449 410.896 688.483 410.94 689.808 412.295C691.043 413.546 690.91 415.63 689.635 416.895C688.325 418.229 686.38 418.201 685.143 416.846Z" fill="#333333"/>
</g>
</g>
<g opacity="0.2">
<g opacity="0.2">
<path opacity="0.2" d="M597.267 482.005C596.264 480.942 596.296 479.241 597.326 478.222C598.357 477.203 600.037 477.234 601.023 478.28C602.079 479.343 601.941 481.045 600.91 482.064C599.897 483.083 598.271 483.103 597.267 482.005Z" fill="#333333"/>
</g>
</g>
<g opacity="0.2">
<g opacity="0.2">
<path opacity="0.2" d="M650.904 380.625C649.685 379.321 649.66 377.291 651.023 375.939C652.298 374.726 654.332 374.718 655.568 376.021C656.84 377.376 656.76 379.459 655.484 380.707C654.174 382.007 652.175 381.927 650.904 380.625Z" fill="#333333"/>
</g>
</g>
<g opacity="0.2">
<g opacity="0.2">
<path opacity="0.2" d="M593.532 437.287C592.297 436.036 592.376 433.901 593.652 432.636C594.962 431.336 596.96 431.364 598.197 432.719C599.469 434.022 599.476 436.069 598.113 437.37C596.838 438.669 594.804 438.625 593.532 437.287Z" fill="#333333"/>
</g>
</g>
<g opacity="0.2">
<g opacity="0.2">
<path opacity="0.2" d="M617.822 461.139C617.051 460.264 617.018 459.032 617.822 458.294C618.678 457.45 619.916 457.435 620.704 458.258C621.528 459.133 621.456 460.4 620.653 461.243C619.849 462.034 618.593 461.962 617.822 461.139Z" fill="#333333"/>
</g>
</g>
</g>
<g opacity="0.2">
<g opacity="0.2">
<g opacity="0.2">
<path opacity="0.2" d="M131.785 512.369L131.105 511.683L147.125 495.853L128.741 476.335L173.726 431.867L200.404 460.131L245.774 415.345L246.402 416.031L200.386 461.502L173.654 433.238L130.085 476.301L148.522 495.888L131.785 512.369Z" fill="#333333"/>
</g>
</g>
<g opacity="0.2">
<g opacity="0.2">
<path opacity="0.2" d="M244.262 417.411C243.313 416.451 243.327 414.733 244.323 413.801C245.354 412.782 246.928 412.798 247.895 413.827C248.899 414.89 248.866 416.504 247.835 417.523C246.839 418.507 245.265 418.474 244.262 417.411Z" fill="#333333"/>
</g>
</g>
<g opacity="0.2">
<g opacity="0.2">
<path opacity="0.2" d="M198.786 462.285C197.873 461.324 197.853 459.711 198.848 458.675C199.844 457.743 201.454 457.775 202.421 458.735C203.424 459.798 203.356 461.448 202.36 462.432C201.364 463.381 199.79 463.348 198.786 462.285Z" fill="#333333"/>
</g>
</g>
<g opacity="0.2">
<g opacity="0.2">
<path opacity="0.2" d="M130.257 513.186C129.487 512.415 129.506 511.079 130.309 510.253C131.113 509.515 132.457 509.533 133.174 510.305C133.998 511.179 133.926 512.499 133.122 513.238C132.318 514.028 131.028 514.061 130.257 513.186Z" fill="#333333"/>
</g>
</g>
<g opacity="0.2">
<g opacity="0.2">
<path opacity="0.2" d="M172.162 434.072C171.159 433.061 171.227 431.446 172.223 430.463C173.166 429.479 174.739 429.46 175.743 430.523C176.692 431.535 176.677 433.149 175.681 434.133C174.685 435.117 173.111 435.084 172.162 434.072Z" fill="#333333"/>
</g>
</g>
<g opacity="0.2">
<g opacity="0.2">
<path opacity="0.2" d="M127.351 478.348C126.348 477.285 126.417 475.722 127.465 474.651C128.461 473.719 130.034 473.648 131.037 474.711C131.988 475.775 131.919 477.389 130.976 478.355C129.875 479.427 128.301 479.412 127.351 478.348Z" fill="#333333"/>
</g>
</g>
<g opacity="0.2">
<g opacity="0.2">
<path opacity="0.2" d="M146.325 496.939C145.68 496.305 145.65 495.316 146.367 494.665C146.926 494.051 147.951 494.073 148.596 494.707C149.187 495.342 149.165 496.418 148.554 497.033C147.89 497.683 146.916 497.556 146.325 496.939Z" fill="#333333"/>
</g>
</g>
</g>
<g opacity="0.2">
<g opacity="0.2">
<g opacity="0.2">
<path opacity="0.2" d="M367.602 500.697L366.831 499.839L387.322 479.529L363.69 454.559L421.359 397.58L455.456 433.734L513.508 376.386L514.368 377.313L455.39 435.592L421.239 399.369L365.406 454.59L388.985 479.561L367.602 500.697Z" fill="#333333"/>
</g>
</g>
<g opacity="0.2">
<g opacity="0.2">
<path opacity="0.2" d="M511.597 379.151C510.361 377.848 510.406 375.765 511.681 374.466C512.957 373.253 515.043 373.244 516.261 374.548C517.498 375.903 517.453 377.986 516.178 379.234C514.867 380.499 512.833 380.455 511.597 379.151Z" fill="#333333"/>
</g>
</g>
<g opacity="0.2">
<g opacity="0.2">
<path opacity="0.2" d="M453.37 436.64C452.134 435.389 452.179 433.306 453.489 431.989C454.764 430.724 456.798 430.768 458.034 432.072C459.254 433.427 459.226 435.509 457.95 436.722C456.676 438.022 454.642 437.995 453.37 436.64Z" fill="#333333"/>
</g>
</g>
<g opacity="0.2">
<g opacity="0.2">
<path opacity="0.2" d="M365.582 501.798C364.633 500.838 364.664 499.033 365.747 498.013C366.778 496.994 368.441 497.06 369.409 498.072C370.412 499.135 370.433 500.836 369.385 501.872C368.301 502.892 366.585 502.861 365.582 501.798Z" fill="#333333"/>
</g>
</g>
<g opacity="0.2">
<g opacity="0.2">
<path opacity="0.2" d="M419.219 400.47C417.983 399.166 418.028 397.084 419.339 395.818C420.614 394.553 422.648 394.598 423.831 395.902C425.157 397.256 425.111 399.339 423.836 400.551C422.543 401.869 420.492 401.825 419.219 400.47Z" fill="#333333"/>
</g>
</g>
<g opacity="0.2">
<g opacity="0.2">
<path opacity="0.2" d="M361.883 457.132C360.647 455.828 360.692 453.746 362.002 452.446C363.313 451.146 365.312 451.225 366.548 452.528C367.82 453.883 367.828 455.965 366.518 457.266C365.207 458.514 363.155 458.47 361.883 457.132Z" fill="#333333"/>
</g>
</g>
<g opacity="0.2">
<g opacity="0.2">
<path opacity="0.2" d="M386.138 481.036C385.314 480.161 385.386 478.79 386.137 478.052C386.941 477.261 388.232 477.28 389.056 478.155C389.826 478.926 389.754 480.245 388.968 481.036C388.217 481.826 386.909 481.842 386.138 481.036Z" fill="#333333"/>
</g>
</g>
</g>
<g opacity="0.2">
<g opacity="0.2">
<g opacity="0.2">
<path opacity="0.2" d="M19.6404 430.749L20.5315 429.871L40.33 450.846L64.788 426.687L120.474 485.668L85.0799 520.614L141.232 580.075L140.323 580.919L83.3643 520.584L118.706 485.672L64.7045 428.527L40.299 452.633L19.6404 430.749Z" fill="#333333"/>
</g>
</g>
<g opacity="0.2">
<g opacity="0.2">
<path opacity="0.2" d="M138.52 578.095C139.848 576.847 141.829 576.875 143.101 578.178C144.337 579.481 144.292 581.564 142.982 582.864C141.706 584.129 139.672 584.085 138.436 582.781C137.165 581.478 137.21 579.396 138.52 578.095Z" fill="#333333"/>
</g>
</g>
<g opacity="0.2">
<g opacity="0.2">
<path opacity="0.2" d="M82.2421 518.481C83.5706 517.232 85.6052 517.311 86.8231 518.563C88.0953 519.918 88.0681 522 86.7402 523.3C85.4116 524.549 83.4308 524.521 82.1592 523.218C80.9402 521.88 80.9319 519.781 82.2421 518.481Z" fill="#333333"/>
</g>
</g>
<g opacity="0.2">
<g opacity="0.2">
<path opacity="0.2" d="M18.4658 428.682C19.5483 427.558 21.1768 427.694 22.1799 428.74C23.1833 429.803 23.2396 431.503 22.156 432.54C21.1253 433.559 19.4622 433.493 18.4052 432.378C17.4384 431.418 17.4175 429.718 18.4658 428.682Z" fill="#333333"/>
</g>
</g>
<g opacity="0.2">
<g opacity="0.2">
<path opacity="0.2" d="M117.584 483.569C118.859 482.304 120.946 482.348 122.165 483.652C123.437 485.007 123.357 487.09 122.081 488.337C120.806 489.602 118.772 489.558 117.5 488.255C116.282 486.951 116.309 484.834 117.584 483.569Z" fill="#333333"/>
</g>
</g>
<g opacity="0.2">
<g opacity="0.2">
<path opacity="0.2" d="M62.22 424.932C63.4953 423.667 65.5289 423.659 66.8011 425.014C68.0367 426.266 67.9576 428.453 66.6817 429.666C65.4065 430.931 63.3729 430.938 62.1367 429.635C60.8649 428.315 60.9441 426.145 62.22 424.932Z" fill="#333333"/>
</g>
</g>
<g opacity="0.2">
<g opacity="0.2">
<path opacity="0.2" d="M38.9718 449.683C39.7224 448.893 40.978 448.912 41.7492 449.787C42.519 450.559 42.5003 451.895 41.7491 452.633C40.8931 453.476 39.6548 453.439 38.8662 452.582C38.0955 451.741 38.1162 450.561 38.9718 449.683Z" fill="#333333"/>
</g>
</g>
</g>
<g opacity="0.2">
<path opacity="0.2" d="M624.907 308.768L645.261 330.326L565.354 409.285L564.135 407.929L642.767 330.288L623.632 310.033L624.907 308.768Z" fill="#333333"/>
</g>
<g opacity="0.2">
<path opacity="0.2" d="M292.043 347.351L293.907 349.375L267.003 375.958L201.946 307.048L184.982 323.757L183.154 321.836L201.97 303.265L266.973 372.124L292.043 347.351Z" fill="#333333"/>
</g>
<g opacity="0.2">
<path opacity="0.2" d="M477.385 319.333L493.546 336.449L491.712 338.259L477.415 323.219L387.48 412.035L351.557 374.03L353.478 372.08L387.485 408.148L477.385 319.333Z" fill="#333333"/>
</g>
<g opacity="0.2">
<path opacity="0.2" d="M762.591 551.309L764.418 553.23L704.392 612.58L630.538 534.374L600.821 563.698L598.994 561.76L630.649 530.486L704.504 608.709L762.591 551.309Z" fill="#333333"/>
</g>
<g opacity="0.2">
<path opacity="0.2" d="M585.68 463.028L600.569 478.737L599.241 480.037L585.588 465.58L532.864 517.674L566.243 552.969L564.967 554.234L530.423 517.617L585.68 463.028Z" fill="#333333"/>
</g>
<g opacity="0.2">
<path opacity="0.2" d="M41.6139 534.823L42.8494 536.074L9.3599 569.175L97.0819 662.097L121.575 637.886L122.758 639.19L97.0428 664.665L6.84817 569.119L41.6139 534.823Z" fill="#333333"/>
</g>
<g opacity="0.2">
<path opacity="0.2" d="M175.762 218.555L195.703 239.667L194.428 240.932L175.722 221.106L58.2721 337.154L57.0356 335.815L175.762 218.555Z" fill="#333333"/>
</g>
<g opacity="0.2">
<path opacity="0.2" d="M603.599 136.778L605.426 138.716L586.297 157.621L579.65 150.572L523.903 205.635L521.986 203.612L579.566 146.686L586.303 153.821L603.599 136.778Z" fill="#333333"/>
</g>
<g opacity="0.2">
<path opacity="0.2" d="M931.272 544.439L971.12 586.646L931.865 625.423L930.001 623.451L967.317 586.537L931.249 548.326L920.61 558.815L872.342 507.742L874.228 505.879L920.634 555.015L931.272 544.439Z" fill="#333333"/>
</g>
</g>
<path d="M199.405 392.043L344.337 545.592L252.323 636.515L398.33 791.178L396.059 793.41L247.83 636.38L339.844 545.474L199.338 396.642L135.695 459.524L81.9254 402.532L84.1791 400.301L135.762 454.943L199.405 392.043Z" fill="#333333"/>
<path d="M78.9948 397.173C81.72 394.467 86.0886 394.552 88.6695 397.348C91.3034 400.144 91.2335 404.5 88.5083 407.205C85.7655 409.911 81.4673 409.825 78.8335 407.03C76.236 404.32 76.2518 399.861 78.9948 397.173Z" fill="#333333"/>
<path d="M336.966 540.113C340.268 536.811 345.644 536.901 348.87 540.331C352.095 543.761 352.003 549.245 348.666 552.513C345.312 555.816 339.953 555.726 336.763 552.296C333.521 548.9 333.612 543.417 336.966 540.113Z" fill="#333333"/>
<path d="M192.769 387.371C196.107 384.12 201.447 384.158 204.726 387.588C207.915 391.019 207.824 396.502 204.523 399.822C201.168 403.074 195.809 402.984 192.567 399.606C189.341 396.123 189.468 390.674 192.769 387.371Z" fill="#333333"/>
<path d="M132.151 451.795C134.23 449.739 137.521 449.855 139.563 452.016C141.517 454.143 141.559 457.543 139.48 459.599C137.366 461.637 134.022 461.54 132.016 459.465C129.974 457.304 130.038 453.937 132.151 451.795Z" fill="#333333"/>
<path d="M478.282 551.053L623.16 704.55L531.146 795.473L677.241 950.135L674.935 952.402L526.707 795.389L618.703 704.466L478.214 555.599L414.554 618.481L360.802 561.49L363.108 559.206L414.726 613.847L478.282 551.053Z" fill="#333333"/>
<path d="M357.871 556.13C360.596 553.424 364.947 553.509 367.598 556.305C370.196 559.049 370.11 563.509 367.385 566.214C364.694 568.815 360.396 568.747 357.798 565.986C355.164 563.19 355.233 558.782 357.871 556.13Z" fill="#333333"/>
<path d="M471.645 546.329C475.035 542.973 480.307 543.168 483.549 546.546C486.774 549.976 486.735 555.425 483.346 558.78C479.992 562.084 474.668 561.993 471.443 558.563C468.217 555.133 468.309 549.632 471.645 546.329Z" fill="#333333"/>
<path d="M521.933 348.383L524.119 350.699L470.696 403.495L532.17 468.598L382.243 616.729L293.321 522.59L142.241 671.88L140.055 669.565L293.406 517.992L382.328 612.165L527.713 468.515L466.257 403.411L521.933 348.383Z" fill="#333333"/>
<path d="M298.639 515.099C301.864 518.477 301.789 523.874 298.382 527.23C295.081 530.532 289.705 530.494 286.515 527.064C283.237 523.634 283.381 518.15 286.718 514.882C290.125 511.526 295.414 511.617 298.639 515.099Z" fill="#333333"/>
<path d="M527.184 345.438C529.783 348.234 529.713 352.642 527.023 355.347C524.298 358.053 519.947 357.968 517.296 355.172C514.662 352.377 514.731 347.969 517.456 345.263C520.182 342.575 524.533 342.643 527.184 345.438Z" fill="#333333"/>
<path d="M536.824 461.757C540.05 465.222 539.959 470.723 536.622 473.991C533.233 477.347 527.908 477.205 524.665 473.775C521.44 470.31 521.48 464.948 524.868 461.54C528.205 458.289 533.529 458.38 536.824 461.757Z" fill="#333333"/>
<path d="M473.673 399.711C475.769 401.889 475.704 405.238 473.643 407.293C471.476 409.385 468.24 409.321 466.179 407.16C464.173 405.033 464.184 401.667 466.315 399.524C468.394 397.468 471.667 397.636 473.673 399.711Z" fill="#333333"/>
<path d="M797.563 433.381L799.749 435.697L746.36 488.441L807.869 553.544L657.908 701.762L568.95 607.537L417.905 756.774L415.719 754.459L569.017 602.99L657.993 697.215L803.43 553.46L741.921 488.357L797.563 433.381Z" fill="#333333"/>
<path d="M802.849 430.402C805.482 433.197 805.413 437.605 802.688 440.31C799.945 443.016 795.647 442.93 793.013 440.135C790.361 437.339 790.449 432.931 793.174 430.226C795.899 427.52 800.197 427.606 802.849 430.402Z" fill="#333333"/>
<path d="M812.437 546.808C815.68 550.238 815.588 555.722 812.234 559.042C808.897 562.293 803.52 562.203 800.331 558.825C797.106 555.394 797.197 549.911 800.533 546.59C803.818 543.322 809.194 543.43 812.437 546.808Z" fill="#333333"/>
<path d="M749.427 484.708C751.433 486.834 751.335 490.288 749.256 492.344C747.194 494.4 743.799 494.337 741.845 492.21C739.785 490.084 739.902 486.63 741.98 484.574C744.006 482.519 747.384 482.53 749.427 484.708Z" fill="#333333"/>
<path d="M433.302 145.993L435.488 148.291L382.101 201.087L443.574 266.19L293.613 414.408L204.654 320.183L53.5918 469.42L51.4059 467.105L204.809 315.531L293.732 409.722L439.117 266.107L377.661 201.003L433.302 145.993Z" fill="#333333"/>
<path d="M58.5785 462.263C61.8037 465.693 61.7124 471.177 58.3752 474.445C55.0209 477.748 49.6974 477.693 46.4718 474.228C43.2295 470.85 43.3739 465.348 46.6758 462.097C50.0302 458.794 55.3532 458.832 58.5785 462.263Z" fill="#333333"/>
<path d="M210.007 312.604C213.286 316.069 213.159 321.518 209.804 324.839C206.502 328.089 201.127 328.104 197.901 324.621C194.658 321.191 194.803 315.741 198.14 312.438C201.441 309.118 206.818 309.226 210.007 312.604Z" fill="#333333"/>
<path d="M438.588 142.995C441.186 145.791 441.153 150.251 438.428 152.956C435.703 155.662 431.351 155.525 428.7 152.781C426.101 149.985 426.135 145.526 428.86 142.82C431.585 140.115 435.955 140.252 438.588 142.995Z" fill="#333333"/>
<path d="M298.93 406.829C302.209 410.259 302.064 415.709 298.727 419.012C295.426 422.314 290.049 422.225 286.824 418.794C283.581 415.364 283.726 409.915 287.08 406.611C290.364 403.361 295.741 403.416 298.93 406.829Z" fill="#333333"/>
<path d="M448.123 259.402C451.366 262.832 451.275 268.316 447.92 271.585C444.583 274.888 439.242 274.849 435.964 271.368C432.774 267.989 432.866 262.488 436.22 259.237C439.575 255.934 444.898 255.972 448.123 259.402Z" fill="#333333"/>
<path d="M385.131 197.354C387.138 199.481 387.127 202.882 384.996 204.99C382.916 206.993 379.538 206.931 377.532 204.856C375.489 202.678 375.589 199.276 377.667 197.221C379.798 195.078 383.124 195.175 385.131 197.354Z" fill="#333333"/>
<path d="M726.601 112.375L728.787 114.725L675.329 167.522L736.838 232.625L586.911 380.755L498.006 286.616L346.909 435.906L344.67 433.592L498.074 282.07L586.996 376.208L732.38 232.541L670.872 167.438L726.601 112.375Z" fill="#333333"/>
<path d="M351.843 428.732C355.068 432.162 354.976 437.646 351.64 440.966C348.303 444.217 342.979 444.127 339.737 440.749C336.511 437.318 336.603 431.835 339.939 428.514C343.277 425.263 348.618 425.371 351.843 428.732Z" fill="#333333"/>
<path d="M503.307 279.125C506.497 282.504 506.493 287.952 503.104 291.307C499.767 294.61 494.391 294.521 491.148 291.091C487.958 287.66 488.049 282.176 491.351 278.908C494.758 275.552 500.082 275.695 503.307 279.125Z" fill="#333333"/>
<path d="M731.799 109.483C734.433 112.278 734.364 116.686 731.639 119.392C728.913 122.097 724.598 122.011 721.964 119.216C719.366 116.472 719.399 112.013 722.125 109.307C724.85 106.602 729.201 106.721 731.799 109.483Z" fill="#333333"/>
<path d="M592.229 373.264C595.419 376.729 595.416 382.142 592.026 385.498C588.672 388.801 583.313 388.711 580.07 385.281C576.881 381.903 576.972 376.401 580.273 373.047C583.662 369.691 588.987 369.886 592.229 373.264Z" fill="#333333"/>
<path d="M741.475 225.836C744.665 229.266 744.574 234.75 741.272 238.018C737.83 241.374 732.558 241.231 729.316 237.801C726.073 234.423 726.13 228.975 729.519 225.619C732.873 222.316 738.25 222.405 741.475 225.836Z" fill="#333333"/>
<path d="M678.395 163.789C680.402 165.915 680.391 169.316 678.312 171.372C676.198 173.462 672.855 173.365 670.848 171.238C668.805 169.06 668.852 165.711 671.019 163.602C673.062 161.547 676.352 161.611 678.395 163.789Z" fill="#333333"/>
<path d="M707.767 449.064L708.735 450.076L684.662 473.917L712.434 503.33L644.686 570.323L604.516 527.79L536.296 595.187L535.257 594.072L604.56 525.655L644.713 568.188L710.435 503.285L682.663 473.872L707.767 449.064Z" fill="#333333"/>
<path d="M606.949 524.359C608.4 525.903 608.359 528.28 606.857 529.808C605.302 531.337 602.932 531.297 601.481 529.718C599.976 528.123 600.017 525.763 601.573 524.269C603.074 522.689 605.444 522.729 606.949 524.359Z" fill="#333333"/>
<path d="M710.103 447.734C711.339 448.985 711.31 450.981 710.07 452.193C708.9 453.405 706.901 453.36 705.719 452.108C704.535 450.804 704.564 448.774 705.752 447.614C706.975 446.437 708.921 446.482 710.103 447.734Z" fill="#333333"/>
<path d="M647.102 566.892C648.553 568.436 648.565 570.847 647.01 572.393C645.508 573.887 643.103 573.847 641.634 572.304C640.182 570.708 640.223 568.296 641.725 566.802C643.28 565.274 645.632 565.314 647.102 566.892Z" fill="#333333"/>
<path d="M714.518 500.233C715.969 501.777 715.894 504.328 714.426 505.735C712.925 507.28 710.467 507.276 709.015 505.732C707.511 504.189 707.639 501.672 709.159 500.143C710.609 498.737 713.066 498.69 714.518 500.233Z" fill="#333333"/>
<path d="M686.021 472.235C686.934 473.195 686.9 474.722 685.957 475.654C684.96 476.585 683.528 476.551 682.579 475.591C681.718 474.63 681.699 473.104 682.678 472.172C683.639 471.241 685.125 471.257 686.021 472.235Z" fill="#333333"/>
<path d="M452.87 291.58L451.921 290.62L476.047 266.778L448.275 237.313L515.971 170.425L556.123 212.959L624.343 145.544L625.346 146.607L556.149 215.04L515.943 172.508L450.256 237.393L478.028 266.823L452.87 291.58Z" fill="#333333"/>
<path d="M622.12 148.781C620.614 147.186 620.743 144.721 622.211 143.28C623.766 141.751 626.17 141.739 627.622 143.335C629.127 144.878 628.998 147.343 627.479 148.888C626.029 150.312 623.624 150.324 622.12 148.781Z" fill="#333333"/>
<path d="M553.76 216.319C552.255 214.776 552.296 212.312 553.851 210.818C555.301 209.377 557.723 209.365 559.228 210.908C560.732 212.451 560.604 214.968 559.136 216.409C557.581 217.92 555.264 217.879 553.76 216.319Z" fill="#333333"/>
<path d="M450.501 293.015C449.318 291.763 449.346 289.715 450.569 288.52C451.792 287.308 453.738 287.353 454.973 288.605C456.156 289.857 456.128 291.904 454.904 293.065C453.629 294.295 451.666 294.267 450.501 293.015Z" fill="#333333"/>
<path d="M513.59 173.786C512.138 172.243 512.126 169.779 513.681 168.285C515.149 166.844 517.606 166.831 519.058 168.375C520.509 169.918 520.433 172.383 518.966 173.876C517.411 175.37 515.059 175.33 513.59 173.786Z" fill="#333333"/>
<path d="M446.138 240.411C444.722 238.867 444.727 236.455 446.229 234.91C447.784 233.381 450.19 233.473 451.606 234.999C453.111 236.594 453.07 238.955 451.515 240.501C449.995 242.046 447.643 242.006 446.138 240.411Z" fill="#333333"/>
<path d="M474.582 268.462C473.669 267.502 473.792 265.991 474.682 265.043C475.625 264.112 477.146 264.093 478.059 265.001C478.973 266.014 478.904 267.576 477.996 268.507C477.07 269.455 475.531 269.422 474.582 268.462Z" fill="#333333"/>
<path d="M672.627 556.132L674.234 554.551L711.018 593.517L756.422 548.627L859.875 658.149L794.152 723.052L898.269 833.347L896.679 834.928L790.95 722.935L856.585 658.103L756.375 551.959L711.005 596.779L672.627 556.132Z" fill="#333333"/>
<path d="M670.546 552.289C672.485 550.374 675.58 550.388 677.461 552.36C679.324 554.332 679.222 557.508 677.3 559.423C675.361 561.338 672.319 561.272 670.438 559.3C668.575 557.328 668.624 554.204 670.546 552.289Z" fill="#333333"/>
<path d="M751.66 545.32C754.071 542.947 757.856 543.022 760.185 545.475C762.461 547.928 762.403 551.815 760.045 554.186C757.686 556.471 753.849 556.484 751.52 554.031C749.191 551.579 749.301 547.604 751.66 545.32Z" fill="#333333"/>
<path d="M567.532 226.143L569.086 224.562L605.923 263.528L651.293 218.707L754.693 328.23L689.058 393.08L793.192 503.357L791.638 504.955L685.874 392.963L751.491 328.165L651.298 221.969L605.912 266.859L567.532 226.143Z" fill="#333333"/>
<path d="M788.25 499.775C790.66 497.35 794.446 497.512 796.722 499.93C799.05 502.348 798.974 506.235 796.582 508.642C794.223 510.961 790.42 510.904 788.11 508.486C785.781 506.068 785.838 502.095 788.25 499.775Z" fill="#333333"/>
<path d="M683.793 389.137C686.187 386.817 689.989 386.874 692.318 389.292C694.647 391.71 694.572 395.684 692.178 398.004C689.768 400.428 685.982 400.266 683.653 397.849C681.378 395.448 681.436 391.56 683.793 389.137Z" fill="#333333"/>
<path d="M565.469 222.317C567.391 220.402 570.503 220.415 572.367 222.44C574.23 224.412 574.181 227.588 572.242 229.503C570.32 231.418 567.208 231.352 565.345 229.432C563.445 227.408 563.53 224.232 565.469 222.317Z" fill="#333333"/>
<path d="M749.428 324.339C751.838 321.915 755.623 321.99 757.953 324.494C760.282 326.912 760.206 330.799 757.813 333.206C755.419 335.525 751.617 335.468 749.288 333.051C747.011 330.546 747.069 326.658 749.428 324.339Z" fill="#333333"/>
<path d="M646.583 215.347C648.977 213.028 652.779 213.085 655.055 215.503C657.384 217.921 657.308 221.808 654.915 224.214C652.521 226.534 648.718 226.477 646.443 224.059C644.114 221.606 644.172 217.719 646.583 215.347Z" fill="#333333"/>
<path d="M603.314 261.304C604.783 259.915 607.222 259.851 608.638 261.395C610.089 262.938 610.014 265.403 608.547 266.896C607.079 268.285 604.726 268.245 603.222 266.701C601.824 265.175 601.865 262.797 603.314 261.304Z" fill="#333333"/>
<path d="M68.9018 579.493L70.509 577.911L107.293 616.877L152.662 572.039L256.097 681.562L190.48 746.411L294.597 856.706L292.99 858.288L187.279 746.312L252.913 681.462L152.649 575.267L107.28 620.087L68.9018 579.493Z" fill="#333333"/>
<path d="M66.8387 575.666C68.7779 573.751 71.8727 573.765 73.7897 575.789C75.6531 577.761 75.5508 580.937 73.6293 582.852C71.7078 584.767 68.5954 584.753 66.7321 582.781C64.7971 580.74 64.8994 577.564 66.8387 575.666Z" fill="#333333"/>
<path d="M147.988 568.679C150.399 566.307 154.184 566.382 156.459 568.783C158.788 571.235 158.712 575.122 156.319 577.494C153.908 579.866 150.123 579.791 147.794 577.339C145.519 574.938 145.595 571.068 147.988 568.679Z" fill="#333333"/>
<path d="M565.083 530.619L564.312 529.795L582.551 511.786L561.552 489.507L612.826 438.854L643.178 471.08L694.767 420.145L695.502 420.917L643.163 472.694L612.793 440.468L563.126 489.54L584.125 511.819L565.083 530.619Z" fill="#333333"/>
<path d="M693.118 422.577C691.989 421.377 692.019 419.52 693.137 418.413C694.272 417.289 696.112 417.335 697.205 418.484C698.298 419.633 698.268 421.49 697.133 422.649C696.015 423.773 694.211 423.744 693.118 422.577Z" fill="#333333"/>
<path d="M641.39 473.705C640.26 472.452 640.238 470.648 641.408 469.489C642.544 468.364 644.383 468.411 645.53 469.611C646.623 470.76 646.557 472.565 645.421 473.69C644.233 474.884 642.465 474.854 641.39 473.705Z" fill="#333333"/>
<path d="M563.309 531.595C562.395 530.634 562.412 529.159 563.373 528.228C564.264 527.297 565.802 527.278 566.715 528.239C567.629 529.164 567.506 530.71 566.563 531.641C565.655 532.572 564.169 532.556 563.309 531.595Z" fill="#333333"/>
<path d="M611.019 441.479C609.926 440.33 609.869 438.526 611.092 437.314C612.227 436.189 614.031 436.236 615.124 437.385C616.217 438.534 616.188 440.443 615.052 441.55C613.864 442.762 612.112 442.645 611.019 441.479Z" fill="#333333"/>
<path d="M560.042 491.851C558.949 490.702 558.979 488.793 560.114 487.686C561.25 486.562 563.054 486.609 564.147 487.758C565.24 488.924 565.21 490.816 564.075 491.923C562.939 493.047 561.135 493.017 560.042 491.851Z" fill="#333333"/>
<path d="M581.558 512.996C580.878 512.327 580.899 511.182 581.597 510.445C582.349 509.741 583.463 509.728 584.143 510.448C584.877 511.168 584.804 512.4 584.105 513.103C583.354 513.789 582.275 513.767 581.558 512.996Z" fill="#333333"/>
<path d="M149.649 558.578L149.058 557.943L163.331 543.887L146.937 526.479L186.89 487L210.613 512.125L250.934 472.329L251.524 472.912L210.592 513.323L186.87 488.232L148.086 526.499L164.481 543.908L149.649 558.578Z" fill="#333333"/>
<path d="M249.612 474.15C248.752 473.275 248.77 471.818 249.661 470.974C250.517 470.096 251.95 470.113 252.774 471.023C253.687 471.931 253.652 473.406 252.761 474.25C251.905 475.093 250.473 475.111 249.612 474.15Z" fill="#333333"/>
<path d="M209.239 514.051C208.38 513.176 208.345 511.754 209.288 510.823C210.144 509.979 211.577 510.014 212.383 510.871C213.297 511.832 213.279 513.255 212.37 514.151C211.444 515.03 210.1 515.012 209.239 514.051Z" fill="#333333"/>
<path d="M148.297 559.306C147.616 558.586 147.637 557.406 148.301 556.738C148.999 556.001 150.219 556.02 150.9 556.741C151.581 557.513 151.56 558.641 150.809 559.397C150.127 560.047 148.978 560.078 148.297 559.306Z" fill="#333333"/>
<path d="M185.518 488.977C184.657 488.016 184.623 486.681 185.566 485.749C186.458 484.906 187.854 484.888 188.715 485.815C189.575 486.724 189.504 488.199 188.666 489.042C187.723 489.956 186.378 489.886 185.518 488.977Z" fill="#333333"/>
<path d="M145.651 528.299C144.79 527.39 144.861 525.966 145.787 525.035C146.643 524.192 148.075 524.174 148.935 525.101C149.796 526.062 149.725 527.485 148.887 528.328C147.961 529.242 146.564 529.277 145.651 528.299Z" fill="#333333"/>
<path d="M162.529 544.816C161.992 544.233 161.999 543.383 162.558 542.821C163.117 542.259 164.001 542.283 164.556 542.848C165.094 543.431 165.088 544.334 164.529 544.878C163.952 545.458 163.067 545.4 162.529 544.816Z" fill="#333333"/>
<path d="M359.258 548.184L358.523 547.412L376.709 529.404L355.729 507.211L406.932 456.559L437.301 488.681L488.837 437.764L489.625 438.535L437.286 490.295L406.916 458.138L357.248 507.14L378.248 529.419L359.258 548.184Z" fill="#333333"/>
<path d="M487.188 440.196C486.095 439.047 486.124 437.138 487.26 436.031C488.396 434.906 490.2 434.954 491.293 436.102C492.439 437.268 492.391 439.16 491.22 440.267C490.085 441.374 488.281 441.344 487.188 440.196Z" fill="#333333"/>
<path d="M434.623 489.302C434.651 490.922 435.964 492.212 437.555 492.186C439.147 492.159 440.415 490.824 440.387 489.205C440.359 487.586 439.046 486.296 437.454 486.322C435.863 486.349 434.595 487.683 434.623 489.302Z" fill="#333333"/>
<path d="M357.432 549.195C356.518 548.27 356.587 546.707 357.531 545.776C358.474 544.845 359.96 544.913 360.821 545.84C361.681 546.801 361.7 548.327 360.757 549.258C359.866 550.137 358.292 550.156 357.432 549.195Z" fill="#333333"/>
<path d="M405.124 459.097C404.031 457.948 404.061 456.039 405.197 454.932C406.332 453.807 408.136 453.854 409.229 455.003C410.359 456.256 410.329 458.113 409.193 459.22C408.075 460.327 406.218 460.298 405.124 459.097Z" fill="#333333"/>
<path d="M354.147 509.469C353.055 508.32 353.084 506.411 354.22 505.304C355.408 504.144 357.159 504.227 358.252 505.376C359.381 506.576 359.457 508.432 358.234 509.592C357.098 510.699 355.241 510.67 354.147 509.469Z" fill="#333333"/>
<path d="M375.717 530.717C374.983 529.945 375.003 528.714 375.667 528.063C376.418 527.325 377.585 527.346 378.302 528.117C378.983 528.838 378.909 530.019 378.158 530.774C377.512 531.406 376.398 531.385 375.717 530.717Z" fill="#333333"/>
<path d="M49.9412 486L50.745 485.21L68.3575 503.869L90.0905 482.416L139.577 534.828L108.149 565.874L157.995 618.732L157.243 619.436L106.663 565.858L138.039 534.795L90.0571 484.013L68.342 505.483L49.9412 486Z" fill="#333333"/>
<path d="M105.58 564.032C106.715 562.908 108.555 562.954 109.665 564.103C110.794 565.304 110.729 567.161 109.593 568.268C108.458 569.392 106.654 569.397 105.508 568.197C104.415 567.048 104.444 565.157 105.58 564.032Z" fill="#333333"/>
<path d="M48.9458 484.139C49.8892 483.208 51.3753 483.276 52.2355 484.202C53.1491 485.163 53.1679 486.689 52.2246 487.621C51.2812 488.552 49.795 488.483 48.8812 487.506C48.0387 486.579 48.0555 485.069 48.9458 484.139Z" fill="#333333"/>
<path d="M137.061 532.986C138.197 531.861 140.036 531.908 141.129 533.057C142.222 534.206 142.192 536.063 141.056 537.187C139.921 538.312 138.117 538.317 136.989 537.116C135.896 535.95 135.926 534.11 137.061 532.986Z" fill="#333333"/>
<path d="M87.843 480.848C88.9785 479.724 90.7825 479.771 91.8752 480.92C92.968 482.069 92.938 483.925 91.8025 485.05C90.6671 486.174 88.8629 486.127 87.7701 484.978C86.6771 483.812 86.7076 481.972 87.843 480.848Z" fill="#333333"/>
<path d="M67.125 502.844C67.7889 502.194 68.9018 502.11 69.6186 502.882C70.3531 503.654 70.2786 504.782 69.6149 505.45C68.8636 506.188 67.6964 506.168 67.0156 505.447C66.317 504.727 66.4093 503.599 67.125 502.844Z" fill="#333333"/>
<path d="M587.897 377.55L605.976 396.742L534.961 466.933L533.868 465.784L603.747 396.7L586.761 378.658L587.897 377.55Z" fill="#333333"/>
<path d="M292.079 411.928L293.71 413.661L269.776 437.309L211.957 376.065L196.934 390.963L195.285 389.214L212.022 372.698L269.84 433.943L292.079 411.928Z" fill="#333333"/>
<path d="M456.789 387.028L471.176 402.223L469.48 403.84L456.831 390.445L376.888 469.387L344.908 435.636L346.654 433.862L376.934 465.934L456.789 387.028Z" fill="#333333"/>
<path d="M710.183 593.215L711.814 594.947L658.53 647.603L592.882 578.058L566.502 604.131L564.854 602.382L592.981 574.639L658.647 644.132L710.183 593.215Z" fill="#333333"/>
<path d="M552.985 514.667L566.226 528.661L565.108 529.82L552.943 516.94L506.106 563.219L535.759 594.656L534.623 595.78L503.895 563.176L552.985 514.667Z" fill="#333333"/>
<path d="M69.5257 578.461L70.6186 579.61L40.8499 609.039L118.79 691.602L140.557 670.096L141.65 671.245L118.747 693.875L38.6213 608.997L69.5257 578.461Z" fill="#333333"/>
<path d="M188.706 297.425L206.426 316.188L205.291 317.295L188.681 299.699L84.3154 402.763L83.2225 401.614L188.706 297.425Z" fill="#333333"/>
<path d="M568.912 224.755L570.542 226.488L553.579 243.249L547.666 236.972L498.051 285.957L496.421 284.207L547.624 233.572L553.591 239.935L568.912 224.755Z" fill="#333333"/>
<path d="M860.13 587.096L895.552 624.622L860.699 659.024L858.997 657.24L892.226 624.472L860.119 590.515L850.65 599.879L807.81 554.447L809.452 552.813L850.661 596.461L860.13 587.096Z" fill="#333333"/>
<path d="M266.494 566.887L243.976 589.148L222.224 566.097L244.743 543.837L266.494 566.887Z" fill="#D74434"/>
<path d="M722.358 139.65L699.839 161.893L678.07 138.843L700.588 116.6L722.358 139.65Z" fill="#D74434"/>
<path d="M509.982 509.055L487.463 531.299L465.694 508.249L488.23 486.005L509.982 509.055Z" fill="#D74434"/>
<path d="M225.838 321.604L203.32 343.865L181.551 320.815L204.069 298.554L225.838 321.604Z" fill="#D74434"/>
<path d="M665.566 329.312L643.047 351.573L621.296 328.523L643.815 306.262L665.566 329.312Z" fill="#FF7F00"/>
<path d="M788.548 468.02L766.029 490.263L744.259 467.213L766.778 444.97L788.548 468.02Z" fill="#029ECF"/>
<path d="M404.436 323.027L381.917 345.288L360.166 322.237L382.684 299.977L404.436 323.027Z" fill="#029ECF"/>
<path d="M161.122 453.728L138.604 475.988L116.852 452.938L139.371 430.677L161.122 453.728Z" fill="#029ECF"/>
<path d="M93.5252 578.79L71.0068 601.05L49.2376 578L71.7562 555.74L93.5252 578.79Z" fill="#8F6CB0"/>
<path d="M341.09 384.17C335.011 390.231 325.336 390.056 319.495 383.83C313.618 377.604 313.797 367.747 319.858 361.703C325.938 355.747 335.578 355.923 341.437 362.148C347.296 368.357 347.17 378.213 341.09 384.17ZM321.292 363.247C316.016 368.465 315.874 376.986 320.98 382.388C326.033 387.791 334.417 387.948 339.693 382.73C344.916 377.513 345.058 368.992 340.005 363.589C334.899 358.239 326.515 358.082 321.292 363.247Z" fill="#333333"/>
<path d="M208.794 404.923C202.767 410.879 193.076 410.756 187.216 404.53C181.34 398.356 181.554 388.412 187.581 382.456C193.66 376.447 203.3 376.675 209.159 382.849C215.035 389.057 214.856 398.914 208.794 404.923ZM189.031 383.947C183.755 389.113 183.614 397.738 188.666 403.089C193.754 408.44 202.156 408.596 207.379 403.431C212.603 398.265 212.761 389.64 207.692 384.342C202.638 378.921 194.255 378.782 189.031 383.947Z" fill="#333333"/>
<path d="M63.3999 478.981C57.3728 484.937 47.6811 484.814 41.822 478.588C35.9458 472.414 36.159 462.47 42.1859 456.496C48.2654 450.488 57.9053 450.716 63.7638 456.89C69.6409 463.132 69.4796 472.989 63.3999 478.981ZM43.6016 458.006C38.3781 463.171 38.2192 471.796 43.2895 477.147C48.3421 482.498 56.7257 482.655 62.0015 477.437C67.2256 472.323 67.3668 463.698 62.3142 458.347C57.2086 452.997 48.825 452.84 43.6016 458.006Z" fill="#333333"/>
<path d="M94.6057 414.139C88.5256 420.096 78.8515 419.973 72.9747 413.747C67.1515 407.573 67.3118 397.629 73.3919 391.673C79.4184 385.664 89.1116 385.892 94.9347 392.066C100.794 398.274 100.632 408.131 94.6057 414.139ZM74.7897 393.165C69.5132 398.331 69.3721 406.956 74.4247 412.306C79.5127 417.657 87.914 417.813 93.1899 412.595C98.414 407.482 98.5549 398.857 93.4674 393.542C88.4141 388.139 80.0308 387.999 74.7897 393.165Z" fill="#333333"/>
<path d="M392.9 212.18C386.82 218.136 377.145 217.961 371.322 211.786C365.446 205.613 365.606 195.669 371.686 189.695C377.766 183.686 387.406 183.914 393.264 190.088C399.105 196.28 398.98 206.188 392.9 212.18ZM373.102 191.204C367.825 196.371 367.684 204.995 372.79 210.346C377.842 215.697 386.226 215.853 391.502 210.635C396.726 205.522 396.867 196.897 391.815 191.546C386.709 186.196 378.325 186.039 373.102 191.204Z" fill="#333333"/>
<path d="M634.954 157.124C628.875 163.133 619.2 162.958 613.376 156.731C607.5 150.558 607.661 140.649 613.74 134.64C619.82 128.631 629.46 128.859 635.318 135.033C641.142 141.259 641.034 151.116 634.954 157.124ZM615.138 136.15C609.862 141.368 609.721 149.94 614.826 155.291C619.879 160.694 628.263 160.85 633.539 155.632C638.762 150.467 638.904 141.894 633.851 136.526C628.763 131.124 620.379 130.984 615.138 136.15Z" fill="#333333"/>
<path d="M662.533 231.095C656.506 237.103 646.815 236.98 640.955 230.702C635.079 224.529 635.292 214.619 641.319 208.628C647.399 202.672 657.039 202.848 662.897 209.021C668.774 215.282 668.613 225.138 662.533 231.095ZM642.735 210.155C637.511 215.32 637.37 223.893 642.423 229.296C647.476 234.647 655.859 234.804 661.135 229.586C666.359 224.42 666.5 215.847 661.448 210.497C656.341 205.094 647.958 204.955 642.735 210.155Z" fill="#333333"/>
<path d="M616.736 274.255C610.709 280.211 601.017 280.088 595.158 273.862C589.282 267.689 589.495 257.744 595.522 251.788C601.603 245.831 611.242 246.007 617.101 252.181C622.977 258.39 622.799 268.299 616.736 274.255ZM596.92 253.28C591.697 258.498 591.538 267.071 596.608 272.422C601.661 277.773 610.044 277.929 615.321 272.763C620.544 267.598 620.686 259.025 615.634 253.674C610.545 248.254 602.161 248.115 596.92 253.28Z" fill="#333333"/>
<path d="M444.737 498.01C440.404 502.245 433.542 502.174 429.402 497.731C425.263 493.34 425.371 486.278 429.669 482.095C434.002 477.808 440.811 477.932 444.951 482.375C449.108 486.765 449.034 493.724 444.737 498.01ZM430.673 483.159C426.951 486.796 426.85 492.957 430.451 496.712C434.052 500.519 439.977 500.637 443.734 496.947C447.402 493.31 447.521 487.149 443.92 483.394C440.319 479.587 434.394 479.486 430.673 483.159Z" fill="#333333"/>
<path d="M363.708 514.747C359.411 519.033 352.566 518.91 348.427 514.467C344.235 510.129 344.396 503.118 348.694 498.831C352.974 494.597 359.837 494.773 363.975 499.111C368.097 503.554 367.988 510.513 363.708 514.747ZM349.679 499.895C345.959 503.619 345.857 509.693 349.458 513.5C353.006 517.308 358.985 517.425 362.705 513.701C366.427 510.064 366.529 504.007 362.927 500.148C359.326 496.375 353.366 496.275 349.679 499.895Z" fill="#333333"/>
<path d="M461.158 298.28C456.878 302.514 450.016 302.442 445.876 298C441.737 293.609 441.862 286.546 446.143 282.364C450.44 278.077 457.285 278.201 461.425 282.644C465.563 287.017 465.49 293.993 461.158 298.28ZM447.128 283.41C443.407 287.047 443.306 293.208 446.907 296.963C450.508 300.771 456.433 300.888 460.207 297.198C463.876 293.561 463.994 287.401 460.394 283.645C456.775 279.856 450.85 279.738 447.128 283.41Z" fill="#333333"/>
<path d="M218.382 521.225C214.102 525.511 207.24 525.388 203.101 520.997C198.962 516.606 199.07 509.595 203.367 505.309C207.648 501.127 214.51 501.25 218.649 505.641C222.788 510.032 222.715 517.042 218.382 521.225ZM204.353 506.372C200.632 510.097 200.53 516.171 204.131 519.978C207.733 523.785 213.658 523.903 217.379 520.214C221.1 516.541 221.202 510.467 217.601 506.66C214.017 502.853 208.074 502.752 204.353 506.372Z" fill="#333333"/>
<path d="M525.472 183.772C519.393 189.781 509.718 189.605 503.841 183.38C498.018 177.206 498.179 167.297 504.258 161.305C510.285 155.297 519.978 155.524 525.801 161.699C531.678 167.907 531.499 177.816 525.472 183.772ZM505.674 162.797C500.398 168.015 500.256 176.588 505.345 181.991C510.397 187.342 518.781 187.498 524.057 182.28C529.28 177.115 529.422 168.542 524.333 163.139C519.281 157.771 510.897 157.632 505.674 162.797Z" fill="#333333"/>
<path d="M615.304 539.35C609.224 545.307 599.55 545.184 593.673 538.958C587.849 532.732 588.01 522.84 594.089 516.831C600.117 510.875 609.809 511.051 615.633 517.277C621.509 523.485 621.348 533.342 615.304 539.35ZM595.505 518.376C590.23 523.594 590.087 532.114 595.14 537.517C600.246 542.868 608.63 543.024 613.906 537.806C619.129 532.641 619.271 524.103 614.183 518.7C609.112 513.315 600.728 513.158 595.505 518.376Z" fill="#333333"/>
<path d="M623.742 450.812C617.716 456.82 608.024 456.697 602.164 450.419C596.288 444.246 596.502 434.336 602.528 428.328C608.608 422.371 618.248 422.547 624.106 428.721C629.984 434.998 629.822 444.855 623.742 450.812ZM603.927 429.889C598.703 435.055 598.562 443.628 603.615 449.031C608.667 454.381 617.051 454.538 622.327 449.32C627.55 444.155 627.692 435.582 622.64 430.231C617.551 424.828 609.167 424.672 603.927 429.889Z" fill="#333333"/>
<path d="M161.999 584.954C155.919 590.911 146.245 590.788 140.368 584.562C134.544 578.336 134.705 568.444 140.785 562.487C146.812 556.479 156.504 556.654 162.328 562.88C168.187 569.106 168.026 578.964 161.999 584.954ZM142.183 563.979C136.907 569.197 136.765 577.77 141.818 583.121C146.924 588.472 155.307 588.628 160.584 583.462C165.807 578.297 165.949 569.724 160.86 564.321C155.808 558.97 147.424 558.813 142.183 563.979Z" fill="#333333"/>
<path d="M777.467 601.823C771.387 607.832 761.713 607.656 755.836 601.431C749.959 595.205 750.173 585.348 756.253 579.356C762.279 573.348 771.919 573.524 777.796 579.749C783.655 585.958 783.493 595.815 777.467 601.823ZM757.651 580.848C752.375 586.066 752.233 594.639 757.286 599.99C762.374 605.392 770.776 605.549 776.052 600.331C781.275 595.166 781.417 586.593 776.328 581.19C771.258 575.822 762.874 575.683 757.651 580.848Z" fill="#333333"/>
<path d="M444.803 159.471C438.777 165.479 429.049 165.304 423.225 159.078C417.349 152.852 417.563 142.96 423.589 136.986C429.669 130.978 439.308 131.154 445.167 137.38C450.991 143.554 450.883 153.462 444.803 159.471ZM425.04 138.495C419.764 143.713 419.623 152.286 424.675 157.637C429.763 162.988 438.165 163.144 443.388 157.979C448.611 152.813 448.753 144.241 443.7 138.838C438.647 133.469 430.264 133.313 425.04 138.495Z" fill="#333333"/>
<path d="M746.958 241.626C740.877 247.583 731.203 247.407 725.326 241.234C719.503 235.007 719.664 225.116 725.744 219.159C731.823 213.15 741.463 213.326 747.286 219.553C753.162 225.709 753.037 235.617 746.958 241.626ZM727.159 220.651C721.883 225.817 721.741 234.442 726.793 239.741C731.9 245.143 740.283 245.3 745.559 240.082C750.783 234.968 750.924 226.344 745.836 220.976C740.784 215.625 732.383 215.486 727.159 220.651Z" fill="#333333"/>
<path d="M598.214 389.638C592.187 395.646 582.459 395.471 576.636 389.245C570.759 383.019 570.973 373.161 577.053 367.17C583.079 361.162 592.719 361.338 598.596 367.563C604.402 373.773 604.293 383.629 598.214 389.638ZM578.45 368.645C573.174 373.863 573.033 382.436 578.085 387.787C583.192 393.189 591.575 393.346 596.798 388.128C602.022 382.963 602.163 374.39 597.11 368.987C592.058 363.636 583.692 363.479 578.45 368.645Z" fill="#333333"/>
<path d="M478.309 414.245C472.23 420.306 462.555 420.131 456.678 413.853C450.855 407.679 451.016 397.822 457.095 391.778C463.175 385.821 472.815 385.997 478.638 392.172C484.497 398.432 484.371 408.289 478.309 414.245ZM458.494 393.322C453.218 398.541 453.075 407.061 458.128 412.464C463.234 417.815 471.618 417.971 476.894 412.805C482.117 407.588 482.259 399.067 477.171 393.664C472.117 388.244 463.734 388.105 458.494 393.322Z" fill="#333333"/>
<path d="M356.652 445.884C350.625 451.84 340.897 451.665 335.074 445.491C329.196 439.231 329.411 429.373 335.491 423.416C341.517 417.356 351.156 417.532 357.034 423.81C362.857 429.984 362.731 439.841 356.652 445.884ZM336.888 424.874C331.612 430.092 331.471 438.717 336.523 444.016C341.629 449.418 350.013 449.575 355.236 444.357C360.46 439.244 360.601 430.619 355.548 425.216C350.513 419.9 342.13 419.743 336.888 424.874Z" fill="#333333"/>
<path d="M578.22 615.056C572.14 621.065 562.466 620.89 556.589 614.664C550.712 608.438 550.926 598.581 557.006 592.589C563.032 586.581 572.672 586.757 578.549 592.983C584.425 599.191 584.264 609.048 578.22 615.056ZM558.421 594.064C553.145 599.282 553.003 607.855 558.056 613.206C563.162 618.608 571.546 618.765 576.822 613.547C582.045 608.381 582.187 599.808 577.099 594.406C572.028 589.055 563.645 588.898 558.421 594.064Z" fill="#333333"/>
</svg>
