<svg width="90" height="31" viewBox="0 0 90 31" fill="none" xmlns="http://www.w3.org/2000/svg">
<ellipse rx="3.95523" ry="4" transform="matrix(-0.0200858 -0.999798 0.999807 -0.0196385 25.2005 25.8668)" fill="#51A368"/>
<ellipse rx="3.95523" ry="4" transform="matrix(-0.0200858 -0.999798 0.999807 -0.0196385 24.8033 6.09476)" fill="#CEFB02"/>
<ellipse rx="3.95529" ry="4" transform="matrix(-0.0200855 -0.999798 0.999807 -0.0196388 64.8113 6.88034)" fill="#CEFB02"/>
<ellipse rx="3.95517" ry="4" transform="matrix(-0.0200861 -0.999798 0.999807 -0.0196382 84.8074 6.48752)" fill="#CEFB02"/>
<ellipse rx="3.95514" ry="3.99994" transform="matrix(-0.0200859 -0.999798 0.999807 -0.0196383 44.7994 5.70203)" fill="#CEFB02"/>
<ellipse rx="3.95523" ry="3.99994" transform="matrix(-0.0200855 -0.999798 0.999807 -0.0196388 45.1966 25.474)" fill="#51A368"/>
<ellipse rx="3.95523" ry="4" transform="matrix(-0.0200858 -0.999798 0.999807 -0.0196385 65.1926 25.0813)" fill="#51A368"/>
<ellipse rx="3.95517" ry="3.99994" transform="matrix(-0.0200858 -0.999798 0.999807 -0.0196385 5.18865 25.6773)" fill="#51A368"/>
</svg>
