<svg width="65" height="100" viewBox="0 0 65 100" fill="none" xmlns="http://www.w3.org/2000/svg">
<ellipse rx="3.94929" ry="2.79717" transform="matrix(0.988214 0.153077 -0.262499 0.964932 22.7836 19.0912)" fill="#51A368"/>
<ellipse rx="3.9493" ry="2.79715" transform="matrix(0.988214 0.153076 -0.262501 0.964932 22.6289 53.9375)" fill="#51A368"/>
<ellipse rx="3.94929" ry="2.79717" transform="matrix(0.988214 0.153077 -0.262499 0.964932 42.4746 54.7836)" fill="#FEFB01"/>
<ellipse rx="3.94929" ry="2.79715" transform="matrix(0.988214 0.153076 -0.262501 0.964932 43.32 95.6298)" fill="#FEFB01"/>
<ellipse rx="3.94924" ry="2.79717" transform="matrix(0.988214 0.153079 -0.262496 0.964933 42.1387 33.7453)" fill="#FEFB01"/>
<ellipse rx="3.9493" ry="2.7972" transform="matrix(0.988214 0.153078 -0.262497 0.964933 42.7041 74.9631)" fill="#FEFB01"/>
<ellipse rx="3.94929" ry="2.79716" transform="matrix(0.988214 0.153077 -0.2625 0.964932 22.1288 3.93606)" fill="#51A368"/>
<ellipse rx="3.94929" ry="2.79715" transform="matrix(0.988214 0.153076 -0.262501 0.964932 22.6369 36.3035)" fill="#51A368"/>
</svg>
