<svg width="25" height="25" viewBox="0 0 25 25" fill="none" xmlns="http://www.w3.org/2000/svg">
<g clip-path="url(#clip0)">
<path d="M24.344 19.2869L19.2839 15.9124C18.6418 15.4876 17.781 15.6273 17.3063 16.2336L15.8323 18.1287C15.6429 18.3785 15.2986 18.4509 15.0245 18.2987L14.7442 18.1441C13.8147 17.6375 12.6582 17.0068 10.3282 14.6759C7.99809 12.345 7.36611 11.1876 6.85949 10.2599L6.70576 9.9795C6.55143 9.70552 6.62252 9.35972 6.87238 9.16878L8.76624 7.69527C9.37221 7.22049 9.51218 6.35997 9.08787 5.71764L5.71338 0.657547C5.27853 0.00344502 4.4061 -0.192913 3.73291 0.211764L1.61696 1.48282C0.952119 1.87368 0.46435 2.50669 0.255934 3.2492C-0.506013 6.02545 0.0671919 10.8168 7.12532 17.8758C12.7399 23.4899 16.9197 24.9997 19.7926 24.9997C20.4538 25.0026 21.1124 24.9165 21.7507 24.744C22.4934 24.5358 23.1265 24.048 23.5171 23.3829L24.7894 21.2683C25.1947 20.5949 24.9984 19.722 24.344 19.2869ZM24.0715 20.8408L22.8021 22.9567C22.5217 23.4367 22.0663 23.7897 21.5315 23.9416C18.9685 24.6452 14.4909 24.0624 7.71479 17.2863C0.938694 10.5102 0.355919 6.03297 1.05957 3.46963C1.2117 2.93416 1.56507 2.47822 2.04566 2.19731L4.1616 0.927917C4.4537 0.752162 4.83235 0.837354 5.02105 1.1212L6.85412 3.87328L8.39266 6.18085C8.57691 6.45947 8.51638 6.8329 8.25353 7.03907L6.35923 8.51258C5.78275 8.95339 5.61813 9.75097 5.97305 10.384L6.12347 10.6573C6.65591 11.6338 7.31787 12.8486 9.7346 15.2649C12.1513 17.6812 13.3658 18.3433 14.3418 18.8756L14.6155 19.0265C15.2485 19.3813 16.0461 19.2168 16.4869 18.6403L17.9604 16.746C18.1667 16.4833 18.5399 16.4228 18.8187 16.6068L23.8783 19.9813C24.1623 20.1699 24.2475 20.5487 24.0715 20.8408Z" fill="white"/>
<path d="M14.1659 4.16875C18.0755 4.17309 21.2438 7.34142 21.2482 11.251C21.2482 11.4811 21.4347 11.6676 21.6648 11.6676C21.8949 11.6676 22.0814 11.4811 22.0814 11.251C22.0766 6.88143 18.5355 3.34036 14.1659 3.33557C13.9358 3.33557 13.7493 3.52207 13.7493 3.75216C13.7493 3.98225 13.9358 4.16875 14.1659 4.16875Z" fill="white"/>
<path d="M14.1659 6.66838C16.6956 6.67136 18.7456 8.72135 18.7486 11.2511C18.7486 11.4811 18.9351 11.6676 19.1652 11.6676C19.3953 11.6676 19.5818 11.4811 19.5818 11.2511C19.5783 8.26136 17.1556 5.83862 14.1659 5.83521C13.9358 5.83521 13.7493 6.0217 13.7493 6.25179C13.7493 6.48189 13.9358 6.66838 14.1659 6.66838Z" fill="white"/>
<path d="M14.1659 9.16802C15.3157 9.16938 16.2475 10.1012 16.249 11.2511C16.249 11.4812 16.4355 11.6676 16.6655 11.6676C16.8956 11.6676 17.0821 11.4812 17.0821 11.2511C17.0803 9.64124 15.7757 8.33665 14.1659 8.33484C13.9358 8.33484 13.7493 8.52133 13.7493 8.75143C13.7493 8.98152 13.9358 9.16802 14.1659 9.16802Z" fill="white"/>
</g>
<defs>
<clipPath id="clip0">
<rect width="25" height="25" fill="white"/>
</clipPath>
</defs>
</svg>
